<?xml version="1.0" standalone="no"?>
<!DOCTYPE svg PUBLIC "-//W3C//DTD SVG 20010904//EN"
 "http://www.w3.org/TR/2001/REC-SVG-20010904/DTD/svg10.dtd">
<svg version="1.0" xmlns="http://www.w3.org/2000/svg"
 width="167.000000pt" height="167.000000pt" viewBox="0 0 167.000000 167.000000"
 preserveAspectRatio="xMidYMid meet">
<metadata>
Created by potrace 1.11, written by Peter Selinger 2001-2013
</metadata>
<g transform="translate(0.000000,167.000000) scale(0.100000,-0.100000)"
fill="#000000" stroke="none">
<path d="M279 1515 c-27 -20 -55 -28 -105 -33 -64 -7 -69 -9 -72 -32 -2 -19 4
-28 23 -37 14 -6 23 -8 21 -4 -3 4 4 7 14 7 10 0 16 -6 13 -13 -3 -7 2 -13 11
-13 15 0 20 -14 19 -47 -1 -7 3 -10 8 -7 5 3 17 0 27 -5 13 -7 22 -7 30 1 7 7
16 4 28 -11 10 -11 23 -21 29 -21 14 0 85 -59 85 -71 0 -22 92 -119 114 -119
19 0 21 -21 4 -38 -9 -9 -9 -12 2 -12 11 -1 11 -3 -2 -11 -20 -11 -24 -29 -7
-29 5 0 7 6 3 13 -4 7 -3 9 2 4 16 -15 11 -121 -6 -135 -8 -7 -10 -12 -5 -11
26 3 28 -3 5 -17 -14 -8 -17 -13 -7 -10 20 6 22 -4 5 -23 -11 -11 -10 -12 2
-6 13 7 13 6 2 -7 -7 -8 -9 -24 -5 -33 5 -14 3 -17 -8 -13 -11 4 -14 -1 -13
-21 0 -14 -6 -32 -15 -39 -9 -8 -10 -11 -3 -7 7 4 4 -8 -7 -27 -11 -18 -28
-48 -37 -66 -9 -17 -21 -32 -27 -32 -6 0 -8 -3 -4 -6 6 -6 -50 -104 -66 -115
-5 -3 -8 -9 -8 -12 1 -17 -47 -106 -54 -99 -4 4 -4 -4 0 -17 5 -18 4 -22 -6
-16 -11 6 -11 5 -2 -5 10 -11 9 -16 -5 -27 -9 -8 -12 -12 -6 -9 20 10 25 -57
6 -73 -16 -13 -16 -13 0 -8 10 3 20 2 23 -3 3 -5 -3 -11 -12 -13 -14 -4 -13
-5 4 -6 13 0 22 -4 22 -8 -3 -21 4 -30 36 -47 19 -10 32 -22 30 -26 -2 -4 23
-6 56 -4 71 3 100 23 132 94 39 87 9 180 -59 180 -16 0 -19 -37 -4 -74 7 -20
6 -26 -8 -29 -16 -4 -16 -5 1 -6 9 0 17 -5 17 -11 0 -5 -8 -10 -17 -10 -15 0
-16 -2 -3 -10 10 -6 11 -10 3 -10 -7 0 -12 -6 -10 -12 1 -7 -4 -12 -10 -11 -7
2 -12 -3 -10 -10 4 -24 -51 -20 -78 7 -48 48 -26 158 52 268 21 29 40 55 43
58 13 11 108 158 128 195 23 46 54 146 57 188 3 35 12 44 27 29 8 -8 8 -16 -3
-29 -13 -17 -13 -17 7 0 17 14 21 15 21 2 0 -8 -5 -15 -11 -15 -6 0 -3 -5 7
-11 9 -6 14 -16 11 -22 -4 -7 -3 -8 1 -4 13 11 15 38 3 31 -7 -5 -8 -2 -4 5 8
12 21 7 21 -7 1 -4 6 -17 13 -28 6 -12 9 -23 7 -26 -2 -2 5 -5 17 -5 19 -2 19
-1 3 11 -15 11 -16 14 -4 21 8 5 11 5 7 0 -4 -4 4 -16 17 -27 14 -11 23 -23
20 -28 -3 -5 0 -12 6 -16 9 -5 8 -10 -2 -18 -8 -6 -30 -32 -48 -58 -19 -26
-38 -45 -44 -41 -6 3 -7 1 -3 -5 8 -13 -28 -75 -38 -65 -4 4 -4 0 0 -10 3 -10
1 -17 -5 -17 -6 0 -10 -3 -10 -8 3 -19 -2 -33 -10 -27 -6 3 -10 -3 -10 -12 -1
-37 -5 -53 -11 -53 -4 0 -7 -6 -7 -12 0 -7 -4 -26 -8 -43 -4 -16 -7 -40 -7
-52 0 -14 -4 -20 -11 -16 -6 4 -7 1 -1 -8 13 -22 14 -41 1 -36 -8 3 -12 -6
-12 -24 -1 -15 3 -25 7 -23 5 3 6 9 3 14 -3 5 -2 11 3 14 4 2 8 -8 7 -24 0
-15 -4 -26 -9 -22 -5 3 -7 -2 -3 -11 3 -9 1 -17 -6 -20 -6 -2 -3 -6 7 -10 9
-4 15 -3 11 2 -3 5 -2 12 2 14 5 3 9 -11 10 -30 1 -20 9 -41 20 -48 10 -7 18
-19 18 -27 0 -9 19 -14 63 -16 76 -4 100 9 143 76 57 90 80 213 80 427 0 157
2 170 31 186 16 9 19 8 12 -3 -4 -7 2 -5 13 5 15 13 23 15 28 7 4 -6 13 -9 20
-6 7 2 18 -1 24 -7 6 -6 11 -7 11 -2 0 5 14 -4 30 -20 30 -29 37 -58 20 -85
-5 -9 -5 -19 1 -26 6 -8 5 -17 -5 -27 -8 -8 -12 -17 -9 -21 4 -3 1 -6 -6 -6
-7 0 -9 -4 -6 -10 3 -5 2 -10 -4 -10 -6 0 -8 -6 -5 -13 2 -7 -5 -23 -16 -35
-13 -14 -16 -22 -8 -22 9 0 9 -3 -2 -10 -8 -5 -11 -10 -6 -10 5 0 1 -10 -10
-22 -12 -13 -13 -18 -4 -13 13 8 13 7 1 -8 -7 -9 -10 -17 -5 -17 4 0 -1 -7
-12 -16 -10 -8 -14 -13 -7 -10 9 5 9 -2 1 -26 -5 -18 -11 -42 -13 -53 -2 -11
-4 -21 -5 -22 -4 -5 -8 -23 -9 -49 -1 -17 -5 -23 -13 -19 -7 4 -4 -1 6 -9 17
-14 17 -16 4 -16 -11 0 -16 -8 -15 -20 1 -14 6 -19 17 -15 9 3 7 -1 -5 -11
-20 -16 -20 -16 3 -11 19 4 21 3 11 -9 -6 -7 -16 -11 -23 -7 -6 4 -6 0 2 -9
17 -21 113 -33 155 -19 33 11 37 16 95 130 35 67 52 170 48 291 -2 58 -7 113
-11 122 -8 20 87 124 104 113 6 -3 11 -2 11 3 0 7 33 8 50 2 3 -1 8 -2 13 -1
4 0 7 -6 7 -16 0 -15 -1 -15 -18 0 -15 14 -19 15 -19 2 0 -8 4 -12 8 -9 4 2
11 0 14 -6 5 -8 12 -7 23 2 12 10 14 10 8 1 -4 -8 -2 -13 4 -13 7 0 9 -7 6
-15 -3 -10 -1 -15 7 -13 7 2 12 -1 12 -7 0 -5 -4 -9 -8 -7 -5 1 -6 -2 -3 -7 4
-5 0 -12 -6 -15 -7 -3 -3 -3 9 0 22 5 26 -8 9 -35 -6 -9 -5 -12 1 -8 15 9 19
-9 17 -73 -2 -89 -3 -92 -16 -84 -8 5 -7 0 2 -11 9 -11 10 -16 3 -11 -7 4 -13
2 -13 -3 0 -6 4 -11 10 -11 5 0 7 -7 3 -16 -5 -13 -7 -13 -14 -2 -12 19 -11 0
1 -23 9 -15 7 -19 -7 -19 -14 0 -15 -2 -4 -9 8 -5 9 -11 3 -15 -6 -3 -9 -14
-8 -24 2 -9 -4 -23 -13 -30 -9 -8 -11 -11 -4 -7 9 4 10 -2 1 -26 -8 -23 -13
-28 -20 -17 -8 10 -9 9 -5 -3 7 -21 -18 -97 -26 -78 -3 8 -6 9 -6 2 -1 -6 6
-18 14 -26 8 -8 11 -18 7 -21 -3 -4 2 -4 12 0 13 5 17 4 12 -4 -4 -8 3 -8 26
-2 64 18 106 102 134 263 23 129 23 215 2 316 -16 80 -21 89 -62 127 -87 80
-190 76 -293 -10 l-30 -25 -29 31 c-79 84 -164 108 -250 69 l-41 -19 -37 43
c-25 30 -67 59 -134 94 -91 46 -100 53 -112 91 -7 22 -20 40 -27 40 -12 0 -11
3 1 16 29 29 14 133 -26 182 -17 20 -21 39 -22 102 0 49 -8 69 -27 70 -11 0
-39 -71 -39 -100 0 -35 1 -34 -33 -17 -18 10 -23 17 -16 24 6 6 9 21 7 34 -2
18 -10 25 -30 27 -16 2 -28 -1 -28 -7 0 -13 -36 -36 -70 -46 -19 -6 -22 -4
-14 5 6 6 18 12 27 14 39 5 61 47 33 63 -8 4 -15 17 -17 28 -6 29 -39 29 -80
0z m81 -39 c0 -2 -8 -10 -17 -17 -16 -13 -17 -12 -4 4 13 16 21 21 21 13z m61
-114 c-8 -15 -1 -29 29 -70 22 -29 35 -52 30 -52 -5 0 -14 9 -20 19 -5 11 -30
34 -55 52 l-44 32 32 18 c40 23 40 22 28 1z m89 -22 c0 -5 -2 -10 -4 -10 -3 0
-8 5 -11 10 -3 6 -1 10 4 10 6 0 11 -4 11 -10z m20 -68 c0 -15 -2 -15 -10 -2
-13 20 -13 33 0 25 6 -3 10 -14 10 -23z m633 -602 c-3 -11 -9 -20 -15 -20 -5
0 -4 9 2 20 6 11 12 20 14 20 2 0 2 -9 -1 -20z m-316 -75 c0 -8 -4 -15 -9 -15
-5 0 -6 -5 -3 -10 4 -6 12 -7 18 -3 7 3 3 -4 -8 -17 -11 -13 -14 -20 -7 -16 6
4 12 2 12 -3 0 -6 -6 -11 -12 -12 -9 0 -9 -2 1 -6 11 -5 11 -7 0 -14 -10 -6
-11 -9 -1 -9 6 0 12 -5 12 -11 0 -5 -6 -7 -12 -3 -8 5 -7 0 2 -11 12 -15 12
-17 1 -10 -11 6 -13 4 -8 -8 3 -9 1 -18 -6 -21 -7 -2 -4 -5 7 -5 15 -1 16 -4
6 -16 -7 -8 -10 -21 -7 -29 3 -7 -2 -24 -10 -37 -13 -17 -13 -21 -2 -15 8 4 5
0 -5 -8 -11 -9 -15 -16 -9 -16 15 0 10 -30 -6 -40 -8 -4 -11 -12 -8 -17 4 -6
-4 -20 -17 -32 -22 -20 -25 -21 -40 -6 -52 52 -20 218 66 348 21 31 40 57 42
57 1 0 3 -7 3 -15z m339 -186 c-1 -18 -9 -35 -20 -41 -10 -6 -16 -6 -14 -2 2
5 10 24 17 42 16 40 19 40 17 1z m-6 -59 c0 -5 -4 -10 -10 -10 -5 0 -6 -7 -3
-17 5 -12 3 -14 -8 -8 -11 7 -11 5 1 -10 11 -14 11 -17 1 -11 -10 7 -12 3 -6
-13 4 -12 2 -21 -4 -21 -6 0 -10 -3 -10 -7 1 -5 1 -17 0 -28 -1 -15 -3 -17
-10 -7 -14 23 2 121 22 134 17 11 27 10 27 -2z m-143 -236 c-3 -3 -12 -4 -19
-1 -8 3 -5 6 6 6 11 1 17 -2 13 -5z"/>
<path d="M135 1234 c-11 -3 -30 -7 -41 -9 -24 -5 -36 -27 -28 -49 4 -10 19
-14 50 -12 24 1 46 4 49 7 7 8 65 -2 65 -11 0 -5 -8 -6 -18 -3 -21 5 -41 -15
-47 -47 -3 -16 6 -32 31 -56 19 -19 39 -34 44 -34 6 0 19 -14 29 -31 14 -23
20 -27 24 -15 4 9 11 16 17 16 6 0 8 -5 4 -12 -4 -6 -3 -9 2 -6 5 3 28 11 52
17 50 14 57 42 17 73 -14 11 -23 24 -20 29 4 5 2 9 -3 9 -6 0 -12 7 -16 15 -4
13 -2 14 14 5 11 -6 26 -20 33 -30 6 -11 22 -20 34 -20 19 0 23 6 23 29 0 34
-49 79 -121 109 -44 19 -157 34 -194 26z"/>
<path d="M148 1067 c7 -8 10 -16 7 -19 -3 -2 1 -5 9 -5 18 0 10 24 -11 31 -12
5 -13 4 -5 -7z"/>
<path d="M200 1010 c-9 -6 -10 -10 -3 -10 6 0 15 5 18 10 8 12 4 12 -15 0z"/>
<path d="M230 1000 c0 -6 4 -9 9 -6 5 4 12 1 14 -4 3 -6 4 -5 3 2 -3 15 -26
23 -26 8z"/>
<path d="M515 961 c-3 -5 -2 -12 3 -15 5 -3 9 1 9 9 0 17 -3 19 -12 6z"/>
<path d="M787 799 c-3 -12 -3 -18 0 -15 4 3 13 0 22 -7 14 -10 14 -10 4 4 -7
9 -10 18 -7 21 3 3 1 9 -4 12 -5 3 -12 -4 -15 -15z"/>
<path d="M1057 773 c-3 -5 3 -14 14 -21 15 -10 19 -10 19 0 0 9 3 9 9 -2 6 -8
7 -18 5 -22 -3 -5 0 -7 8 -6 7 2 12 -3 11 -9 -2 -7 2 -13 7 -13 6 0 10 4 10 8
0 15 -42 57 -53 54 -5 -2 -13 2 -17 9 -4 6 -10 7 -13 2z"/>
<path d="M1519 598 c-6 -20 -6 -39 0 -42 4 -3 7 6 7 20 0 20 -4 32 -7 22z"/>
<path d="M246 228 c3 -5 10 -6 15 -3 13 9 11 12 -6 12 -8 0 -12 -4 -9 -9z"/>
<path d="M643 115 c0 -8 4 -12 9 -9 5 3 6 10 3 15 -9 13 -12 11 -12 -6z"/>
<path d="M330 110 c0 -5 5 -10 11 -10 5 0 7 5 4 10 -3 6 -8 10 -11 10 -2 0 -4
-4 -4 -10z"/>
</g>
</svg>
